<svg width="570" height="76" viewBox="0 0 570 76" fill="none" xmlns="http://www.w3.org/2000/svg">
<path d="M549.853 18.8525C555.93 18.8525 560.695 20.6825 564.147 24.3423C567.6 28.0021 569.326 33.8026 569.326 41.7438H533.591L533.384 39.7757H558.347C558.416 36.3921 558.14 33.2847 557.518 30.4535C556.897 27.5533 555.93 25.24 554.618 23.5137C553.306 21.7873 551.579 20.9241 549.439 20.9241C546.469 20.9241 543.88 22.5124 541.67 25.6888C539.529 28.7962 538.217 33.8026 537.734 40.708L538.045 41.2259C537.976 42.1926 537.907 43.2629 537.838 44.4369C537.769 45.5417 537.734 46.6466 537.734 47.7514C537.734 52.5161 538.459 56.5212 539.909 59.7667C541.359 63.0123 543.258 65.4636 545.606 67.1209C547.954 68.7092 550.336 69.5033 552.753 69.5033C554.618 69.5033 556.413 69.2271 558.14 68.6746C559.935 68.0532 561.627 67.0519 563.215 65.6708C564.803 64.2207 566.219 62.2527 567.462 59.7667L569.533 60.5954C568.705 62.9432 567.427 65.2565 565.701 67.5353C563.975 69.814 561.765 71.6785 559.072 73.1286C556.379 74.5097 553.237 75.2002 549.646 75.2002C544.812 75.2002 540.6 74.1299 537.009 71.9892C533.418 69.7795 530.656 66.6376 528.723 62.5634C526.789 58.4892 525.822 53.6555 525.822 48.0622C525.822 41.9164 526.824 36.6683 528.826 32.318C530.829 27.9676 533.625 24.653 537.216 22.3743C540.876 20.0264 545.088 18.8525 549.853 18.8525Z" fill="black"/>
<path d="M499.796 18.8525C502.144 18.8525 504.388 19.1633 506.529 19.7848C508.67 20.3372 510.534 21.1313 512.122 22.1671C513.78 23.2029 515.023 24.4459 515.851 25.896C516.749 27.3461 517.198 28.9344 517.198 30.6607C517.198 32.7323 516.611 34.3551 515.437 35.529C514.263 36.7029 512.744 37.2898 510.879 37.2898C509.015 37.2898 507.461 36.7719 506.218 35.7361C504.975 34.7003 504.354 33.2157 504.354 31.2822C504.354 29.4868 504.872 28.0367 505.908 26.9318C506.943 25.7579 508.152 24.9983 509.533 24.653C508.911 23.6172 507.807 22.7541 506.218 22.0635C504.699 21.3039 503.042 20.9241 501.246 20.9241C499.382 20.9241 497.587 21.4075 495.86 22.3743C494.203 23.341 492.718 24.8257 491.406 26.8282C490.094 28.8308 489.024 31.4203 488.195 34.5967C487.436 37.7732 487.056 41.6057 487.056 46.0941C487.056 51.8946 487.712 56.5212 489.024 59.9739C490.405 63.3575 492.2 65.7744 494.41 67.2245C496.62 68.6746 499.002 69.3997 501.557 69.3997C503.214 69.3997 504.906 69.089 506.633 68.4675C508.428 67.846 510.12 66.8102 511.708 65.3601C513.365 63.9099 514.816 61.9419 516.059 59.456L518.027 60.1811C517.267 62.4598 516.059 64.7731 514.401 67.1209C512.813 69.4688 510.707 71.4022 508.083 72.9214C505.459 74.4406 502.248 75.2002 498.45 75.2002C494.099 75.2002 490.163 74.1299 486.642 71.9892C483.12 69.8485 480.323 66.7411 478.251 62.667C476.18 58.5238 475.144 53.4829 475.144 47.5443C475.144 41.7438 476.18 36.7029 478.251 32.4216C480.392 28.0712 483.327 24.7221 487.056 22.3743C490.785 20.0264 495.032 18.8525 499.796 18.8525Z" fill="black"/>
<path d="M435.796 74.4751C432.896 74.4751 430.41 73.9227 428.338 72.8178C426.267 71.713 424.713 70.1938 423.677 68.2603C422.641 66.3268 422.124 64.1171 422.124 61.6312C422.124 58.5928 422.814 56.1414 424.195 54.277C425.576 52.3435 427.337 50.7898 429.478 49.6159C431.688 48.442 434.001 47.4752 436.418 46.7156C438.904 45.887 441.217 45.1274 443.358 44.4368C445.567 43.6773 447.363 42.8141 448.744 41.8473C450.194 40.8806 450.919 39.6031 450.919 38.0149V30.9714C450.919 28.4855 450.505 26.5175 449.676 25.0674C448.916 23.5482 447.846 22.4778 446.465 21.8564C445.153 21.2349 443.565 20.9241 441.7 20.9241C440.112 20.9241 438.42 21.1658 436.625 21.6492C434.829 22.0635 433.414 22.9267 432.378 24.2387C433.897 24.653 435.14 25.4817 436.107 26.7246C437.143 27.8985 437.661 29.3832 437.661 31.1786C437.661 33.1121 437.005 34.6313 435.693 35.7361C434.45 36.841 432.861 37.3934 430.928 37.3934C428.787 37.3934 427.199 36.7374 426.163 35.4254C425.127 34.0443 424.609 32.4561 424.609 30.6607C424.609 28.7962 425.058 27.2771 425.956 26.1032C426.923 24.9292 428.166 23.8244 429.685 22.7886C431.342 21.6837 433.448 20.7515 436.003 19.9919C438.627 19.2323 441.528 18.8525 444.704 18.8525C447.674 18.8525 450.228 19.1978 452.369 19.8883C454.579 20.5098 456.409 21.5456 457.859 22.9958C459.585 24.584 460.725 26.5865 461.277 29.0034C461.83 31.3512 462.106 34.2169 462.106 37.6006V66.1887C462.106 67.915 462.313 69.158 462.727 69.9176C463.211 70.6081 463.97 70.9534 465.006 70.9534C465.697 70.9534 466.353 70.7808 466.974 70.4355C467.665 70.0902 468.459 69.5723 469.356 68.8818L470.392 70.6426C468.942 71.8166 467.457 72.7488 465.938 73.4393C464.488 74.1298 462.624 74.4751 460.345 74.4751C458.135 74.4751 456.34 74.1298 454.959 73.4393C453.578 72.7488 452.542 71.7475 451.851 70.4355C451.23 69.1235 450.919 67.5007 450.919 65.5672C449.124 68.4675 446.983 70.6772 444.497 72.1963C442.011 73.7155 439.111 74.4751 435.796 74.4751ZM440.768 69.5033C442.702 69.5033 444.497 68.9508 446.154 67.846C447.881 66.7411 449.469 65.0838 450.919 62.8741V42.2617C450.159 43.3665 449.055 44.3333 447.604 45.1619C446.154 45.9215 444.601 46.7156 442.943 47.5443C441.286 48.3729 439.698 49.3396 438.179 50.4445C436.728 51.4803 435.52 52.8269 434.553 54.4841C433.586 56.1414 433.103 58.2475 433.103 60.8025C433.103 63.4956 433.794 65.6363 435.175 67.2245C436.556 68.7437 438.42 69.5033 440.768 69.5033Z" fill="black"/>
<path d="M389.216 0.415039V2.48664C386.868 2.55569 385.073 2.83191 383.83 3.31528C382.656 3.7296 381.861 4.55824 381.447 5.80121C381.033 6.97511 380.826 8.83956 380.826 11.3945V63.1847C380.826 65.5325 380.998 67.2933 381.344 68.4672C381.758 69.6412 382.518 70.4353 383.622 70.8496C384.796 71.1949 386.454 71.3675 388.594 71.3675H395.327C398.296 71.3675 400.782 70.9532 402.785 70.1245C404.856 69.2959 406.583 68.0529 407.964 66.3956C409.345 64.7384 410.415 62.5977 411.175 59.9737C411.935 57.3496 412.521 54.2768 412.936 50.755H415.318C415.111 52.9647 415.007 55.865 415.007 59.4558C415.007 60.8368 415.042 62.8739 415.111 65.567C415.249 68.191 415.456 70.9186 415.732 73.7498C412.211 73.6117 408.24 73.5427 403.821 73.5427C399.401 73.4736 395.465 73.4391 392.012 73.4391C390.424 73.4391 388.387 73.4391 385.901 73.4391C383.415 73.4391 380.722 73.4736 377.822 73.5427C374.991 73.5427 372.09 73.5772 369.121 73.6463C366.221 73.6463 363.424 73.6808 360.731 73.7498V71.6782C363.079 71.5401 364.84 71.2639 366.014 70.8496C367.188 70.4353 367.947 69.6066 368.292 68.3637C368.707 67.1207 368.914 65.2563 368.914 62.7703V11.3945C368.914 8.83956 368.707 6.97511 368.292 5.80121C367.947 4.55824 367.153 3.7296 365.91 3.31528C364.736 2.83191 363.01 2.55569 360.731 2.48664V0.415039C362.319 0.484092 364.356 0.553144 366.842 0.622196C369.397 0.691249 372.125 0.725775 375.025 0.725775C377.649 0.725775 380.239 0.691249 382.794 0.622196C385.418 0.553144 387.558 0.484092 389.216 0.415039Z" fill="black"/>
<path d="M307.59 18.8525C313.667 18.8525 318.432 20.6825 321.885 24.3423C325.337 28.0021 327.064 33.8026 327.064 41.7438H291.328L291.121 39.7757H316.084C316.153 36.3921 315.877 33.2847 315.255 30.4535C314.634 27.5533 313.667 25.24 312.355 23.5137C311.043 21.7873 309.317 20.9241 307.176 20.9241C304.207 20.9241 301.617 22.5124 299.407 25.6888C297.267 28.7962 295.955 33.8026 295.471 40.708L295.782 41.2259C295.713 42.1926 295.644 43.2629 295.575 44.4369C295.506 45.5417 295.471 46.6466 295.471 47.7514C295.471 52.5161 296.196 56.5212 297.647 59.7667C299.097 63.0123 300.996 65.4636 303.344 67.1209C305.691 68.7092 308.074 69.5033 310.491 69.5033C312.355 69.5033 314.151 69.2271 315.877 68.6746C317.672 68.0532 319.364 67.0519 320.952 65.6708C322.541 64.2207 323.956 62.2527 325.199 59.7667L327.271 60.5954C326.442 62.9432 325.165 65.2565 323.438 67.5353C321.712 69.814 319.502 71.6785 316.809 73.1286C314.116 74.5097 310.974 75.2002 307.383 75.2002C302.549 75.2002 298.337 74.1299 294.746 71.9892C291.156 69.7795 288.393 66.6376 286.46 62.5634C284.526 58.4892 283.56 53.6555 283.56 48.0622C283.56 41.9164 284.561 36.6683 286.563 32.318C288.566 27.9676 291.363 24.653 294.953 22.3743C298.613 20.0264 302.826 18.8525 307.59 18.8525Z" fill="black"/>
<path d="M255.538 18.8525C258.301 18.8525 260.545 19.2323 262.271 19.9919C264.067 20.6825 265.551 21.6492 266.725 22.8922C267.968 24.2042 268.831 25.896 269.315 27.9676C269.867 30.0392 270.143 32.8359 270.143 36.3576V64.1171C270.143 67.0173 270.696 68.9854 271.801 70.0212C272.975 71.057 274.908 71.5749 277.601 71.5749V73.7501C276.427 73.681 274.597 73.612 272.111 73.5429C269.625 73.4048 267.174 73.3357 264.757 73.3357C262.409 73.3357 260.061 73.4048 257.714 73.5429C255.435 73.612 253.708 73.681 252.535 73.7501V71.5749C254.882 71.5749 256.54 71.057 257.506 70.0212C258.473 68.9854 258.957 67.0173 258.957 64.1171V33.4574C258.957 31.4548 258.784 29.6594 258.439 28.0712C258.093 26.4139 257.368 25.1019 256.263 24.1351C255.159 23.0993 253.501 22.5814 251.292 22.5814C248.737 22.5814 246.458 23.3065 244.455 24.7566C242.522 26.2067 240.968 28.2093 239.794 30.7643C238.689 33.2502 238.137 36.0469 238.137 39.1543V64.1171C238.137 67.0173 238.62 68.9854 239.587 70.0212C240.623 71.057 242.28 71.5749 244.559 71.5749V73.7501C243.454 73.681 241.762 73.612 239.483 73.5429C237.274 73.4048 234.96 73.3357 232.543 73.3357C230.196 73.3357 227.744 73.4048 225.189 73.5429C222.634 73.612 220.735 73.681 219.492 73.7501V71.5749C222.185 71.5749 224.084 71.057 225.189 70.0212C226.363 68.9854 226.95 67.0173 226.95 64.1171V31.5929C226.95 28.4855 226.432 26.2067 225.396 24.7566C224.36 23.2374 222.392 22.4778 219.492 22.4778V20.3027C221.702 20.5098 223.843 20.6134 225.914 20.6134C228.262 20.6134 230.437 20.5098 232.44 20.3027C234.511 20.0264 236.41 19.6467 238.137 19.1633V30.4535C239.932 26.1722 242.384 23.1684 245.491 21.442C248.668 19.7157 252.017 18.8525 255.538 18.8525Z" fill="black"/>
<path d="M193.086 18.8525C199.163 18.8525 203.927 20.6825 207.38 24.3423C210.833 28.0021 212.559 33.8026 212.559 41.7438H176.824L176.617 39.7757H201.58C201.649 36.3921 201.372 33.2847 200.751 30.4535C200.129 27.5533 199.163 25.24 197.851 23.5137C196.539 21.7873 194.812 20.9241 192.672 20.9241C189.702 20.9241 187.113 22.5124 184.903 25.6888C182.762 28.7962 181.45 33.8026 180.967 40.708L181.278 41.2259C181.209 42.1926 181.14 43.2629 181.071 44.4369C181.002 45.5417 180.967 46.6466 180.967 47.7514C180.967 52.5161 181.692 56.5212 183.142 59.7667C184.592 63.0123 186.491 65.4636 188.839 67.1209C191.187 68.7092 193.569 69.5033 195.986 69.5033C197.851 69.5033 199.646 69.2271 201.372 68.6746C203.168 68.0532 204.86 67.0519 206.448 65.6708C208.036 64.2207 209.452 62.2527 210.695 59.7667L212.766 60.5954C211.938 62.9432 210.66 65.2565 208.934 67.5353C207.208 69.814 204.998 71.6785 202.305 73.1286C199.612 74.5097 196.47 75.2002 192.879 75.2002C188.045 75.2002 183.833 74.1299 180.242 71.9892C176.651 69.7795 173.889 66.6376 171.955 62.5634C170.022 58.4892 169.055 53.6555 169.055 48.0622C169.055 41.9164 170.056 36.6683 172.059 32.318C174.062 27.9676 176.858 24.653 180.449 22.3743C184.109 20.0264 188.321 18.8525 193.086 18.8525Z" fill="black"/>
<path d="M155.738 18.8525C157.74 18.8525 159.432 19.2669 160.813 20.0955C162.263 20.9241 163.334 21.9945 164.024 23.3065C164.784 24.5495 165.164 25.965 165.164 27.5533C165.164 29.5558 164.542 31.2822 163.299 32.7323C162.125 34.1134 160.537 34.8039 158.535 34.8039C156.808 34.8039 155.324 34.286 154.081 33.2502C152.907 32.2144 152.32 30.7988 152.32 29.0034C152.32 27.4842 152.699 26.2067 153.459 25.1709C154.288 24.0661 155.22 23.2029 156.256 22.5814C155.565 22.029 154.737 21.7873 153.77 21.8564C151.905 21.9254 150.179 22.5469 148.591 23.7208C147.003 24.8257 145.656 26.2758 144.551 28.0712C143.446 29.7975 142.583 31.662 141.962 33.6645C141.34 35.6671 141.029 37.5315 141.029 39.2578V63.0813C141.029 66.4649 141.962 68.7437 143.826 69.9176C145.69 71.0224 148.28 71.5749 151.595 71.5749V73.7501C150.006 73.681 147.728 73.612 144.758 73.5429C141.858 73.4048 138.785 73.3357 135.54 73.3357C133.054 73.3357 130.568 73.4048 128.082 73.5429C125.596 73.612 123.697 73.681 122.385 73.7501V71.5749C125.078 71.5749 126.977 71.057 128.082 70.0212C129.256 68.9854 129.843 67.0173 129.843 64.1171V31.5929C129.843 28.4855 129.325 26.2067 128.289 24.7566C127.253 23.2374 125.285 22.4778 122.385 22.4778V20.3027C124.594 20.5098 126.735 20.6134 128.807 20.6134C131.155 20.6134 133.33 20.5098 135.332 20.3027C137.404 20.0264 139.303 19.6467 141.029 19.1633V31.075C141.858 29.0725 142.963 27.139 144.344 25.2745C145.725 23.4101 147.382 21.8909 149.316 20.717C151.249 19.474 153.39 18.8525 155.738 18.8525Z" fill="black"/>
<path d="M95.9785 18.8525C102.055 18.8525 106.82 20.6825 110.273 24.3423C113.725 28.0021 115.452 33.8026 115.452 41.7438H79.7163L79.5092 39.7757H104.472C104.541 36.3921 104.265 33.2847 103.644 30.4535C103.022 27.5533 102.055 25.24 100.743 23.5137C99.4312 21.7873 97.7049 20.9241 95.5642 20.9241C92.5949 20.9241 90.0054 22.5124 87.7956 25.6888C85.655 28.7962 84.3429 33.8026 83.8596 40.708L84.1703 41.2259C84.1013 42.1926 84.0322 43.2629 83.9631 44.4369C83.8941 45.5417 83.8596 46.6466 83.8596 47.7514C83.8596 52.5161 84.5846 56.5212 86.0348 59.7667C87.4849 63.0123 89.3839 65.4636 91.7317 67.1209C94.0796 68.7092 96.4619 69.5033 98.8788 69.5033C100.743 69.5033 102.539 69.2271 104.265 68.6746C106.06 68.0532 107.752 67.0519 109.34 65.6708C110.929 64.2207 112.344 62.2527 113.587 59.7667L115.659 60.5954C114.83 62.9432 113.553 65.2565 111.826 67.5353C110.1 69.814 107.89 71.6785 105.197 73.1286C102.504 74.5097 99.3622 75.2002 95.7714 75.2002C90.9376 75.2002 86.7253 74.1299 83.1345 71.9892C79.5437 69.7795 76.7815 66.6376 74.848 62.5634C72.9145 58.4892 71.9478 53.6555 71.9478 48.0622C71.9478 41.9164 72.949 36.6683 74.9516 32.318C76.9542 27.9676 79.7509 24.653 83.3417 22.3743C87.0015 20.0264 91.2138 18.8525 95.9785 18.8525Z" fill="black"/>
<path d="M36.0462 0L61.32 65.0484C62.2867 67.6034 63.3916 69.3297 64.6345 70.2274C65.9466 71.1251 67.155 71.6085 68.2599 71.6775V73.7491C66.6026 73.611 64.6345 73.542 62.3558 73.542C60.146 73.4729 57.9018 73.4384 55.623 73.4384C52.7227 73.4384 50.0296 73.4729 47.5437 73.542C45.0577 73.542 43.0552 73.611 41.536 73.7491V71.6775C45.0577 71.5394 47.2675 70.9524 48.1652 69.9166C49.1319 68.8118 48.9248 66.4985 47.5437 62.9768L28.8991 12.6368L30.5564 10.7723L13.3619 55.7262C12.119 58.8336 11.3594 61.4231 11.0832 63.4947C10.876 65.5663 11.0486 67.189 11.6011 68.3629C12.2226 69.5368 13.2584 70.3655 14.7085 70.8489C16.1586 71.3322 17.954 71.6085 20.0947 71.6775V73.7491C18.0231 73.611 15.9169 73.542 13.7763 73.542C11.7047 73.4729 9.73661 73.4384 7.87216 73.4384C6.21486 73.4384 4.7302 73.4729 3.41817 73.542C2.1752 73.542 1.03581 73.611 0 73.7491V71.6775C1.45013 71.3322 2.90027 70.4691 4.3504 69.088C5.80054 67.7069 7.18162 65.3591 8.49364 62.0445L32.5244 0C33.0769 0 33.6638 0 34.2853 0C34.9068 0 35.4938 0 36.0462 0ZM46.9222 43.918V45.9896H16.0551L17.0909 43.918H46.9222Z" fill="black"/>
</svg>
