<svg width="360" height="49" viewBox="0 0 360 49" fill="none" xmlns="http://www.w3.org/2000/svg">
<path d="M344.3 11.9521C347.42 11.9521 350.084 12.6001 352.292 13.8961C354.5 15.1441 356.18 16.8722 357.332 19.0802C358.532 21.2401 359.132 23.7121 359.132 26.4962C359.132 27.0241 359.108 27.5761 359.06 28.1521C359.012 28.6801 358.916 29.1601 358.772 29.5921H337.316C337.364 34.7761 338.276 38.5201 340.052 40.8241C341.876 43.0801 344.564 44.2081 348.116 44.2081C350.516 44.2081 352.46 43.8241 353.948 43.0561C355.436 42.2881 356.828 41.1601 358.124 39.6721L358.844 40.3201C357.356 42.9601 355.364 45.0241 352.868 46.5121C350.42 48.0001 347.468 48.7442 344.012 48.7442C340.604 48.7442 337.58 48.0241 334.94 46.5841C332.3 45.0961 330.236 42.9841 328.748 40.2481C327.26 37.5121 326.516 34.2481 326.516 30.4562C326.516 26.5201 327.38 23.1841 329.108 20.4481C330.836 17.6641 333.044 15.5521 335.732 14.1121C338.468 12.6721 341.324 11.9521 344.3 11.9521ZM344.084 13.3922C342.692 13.3922 341.492 13.8241 340.484 14.6881C339.524 15.5041 338.756 16.9921 338.18 19.1521C337.652 21.2641 337.364 24.2641 337.316 28.1521H349.628C350.108 22.9201 349.916 19.1521 349.052 16.8481C348.188 14.5441 346.532 13.3922 344.084 13.3922Z" fill="black"/>
<path d="M311.807 48.7442C308.543 48.7442 305.567 48.0481 302.879 46.6561C300.239 45.2161 298.127 43.1522 296.543 40.4642C295.007 37.7282 294.239 34.3922 294.239 30.4562C294.239 26.5681 295.079 23.2561 296.759 20.5201C298.487 17.7361 300.767 15.6241 303.599 14.1841C306.479 12.6961 309.623 11.9521 313.031 11.9521C315.815 11.9521 318.167 12.4081 320.087 13.3201C322.007 14.2321 323.471 15.4321 324.479 16.9202C325.487 18.3602 325.991 19.8722 325.991 21.4562C325.991 22.8001 325.583 23.8561 324.767 24.6241C323.951 25.3442 322.895 25.7042 321.599 25.7042C320.207 25.7042 319.079 25.2002 318.215 24.1922C317.351 23.1842 316.847 21.8642 316.703 20.2322C316.655 19.1762 316.679 18.2881 316.775 17.5681C316.871 16.8001 316.871 16.0321 316.775 15.2641C316.583 14.4481 316.271 13.9202 315.839 13.6801C315.455 13.3921 314.903 13.2481 314.183 13.2481C311.255 13.2481 308.975 14.5201 307.343 17.0641C305.759 19.6081 304.967 23.6642 304.967 29.2322C304.967 34.0802 305.855 37.8001 307.631 40.3921C309.455 42.9361 312.239 44.2081 315.983 44.2081C318.239 44.2081 320.063 43.8002 321.455 42.9841C322.847 42.1682 324.191 40.9442 325.487 39.3122L326.207 39.8881C325.007 42.7201 323.159 44.9042 320.663 46.4402C318.167 47.9762 315.215 48.7442 311.807 48.7442Z" fill="black"/>
<path d="M270.078 48.7442C267.294 48.7442 264.942 47.9522 263.022 46.3682C261.15 44.7842 260.214 42.5041 260.214 39.5281C260.214 37.2721 261.366 35.2081 263.67 33.3361C265.974 31.4161 269.598 29.9762 274.542 29.0162C275.31 28.8722 276.174 28.7281 277.134 28.5841C278.094 28.3921 279.102 28.2002 280.158 28.0082V22.3201C280.158 19.0561 279.75 16.7761 278.934 15.4801C278.166 14.1361 276.942 13.4641 275.262 13.4641C274.11 13.4641 273.198 13.8481 272.526 14.6161C271.854 15.3361 271.422 16.6081 271.23 18.4321L271.086 19.2241C270.99 21.2881 270.486 22.8002 269.574 23.7602C268.662 24.7202 267.534 25.2001 266.19 25.2001C264.942 25.2001 263.91 24.8161 263.094 24.0481C262.278 23.2801 261.87 22.2481 261.87 20.9521C261.87 18.9841 262.542 17.3281 263.886 15.9841C265.278 14.6402 267.102 13.6321 269.358 12.9601C271.614 12.2881 274.062 11.9521 276.702 11.9521C280.974 11.9521 284.262 13.0081 286.566 15.1201C288.918 17.1841 290.094 20.5681 290.094 25.2721V41.1841C290.094 43.3441 291.102 44.4242 293.118 44.4242H294.702L295.35 45.0001C294.438 46.1521 293.43 47.0402 292.326 47.6642C291.27 48.2882 289.758 48.6001 287.79 48.6001C285.678 48.6001 283.998 48.1202 282.75 47.1602C281.55 46.1522 280.758 44.8322 280.374 43.2002C278.934 44.7362 277.446 46.0562 275.91 47.1602C274.422 48.2162 272.478 48.7442 270.078 48.7442ZM274.47 44.3522C275.43 44.3522 276.318 44.1362 277.134 43.7042C277.998 43.2242 279.006 42.5041 280.158 41.5441V29.4481C279.678 29.5441 279.198 29.6401 278.718 29.7361C278.238 29.8321 277.686 29.9282 277.062 30.0242C274.854 30.6002 273.078 31.5842 271.734 32.9762C270.438 34.3202 269.79 36.1441 269.79 38.4481C269.79 40.4161 270.246 41.9042 271.158 42.9122C272.07 43.8722 273.174 44.3522 274.47 44.3522Z" fill="black"/>
<path d="M223.707 47.6645V46.9445L225.219 46.3685C226.227 45.9845 226.851 45.5285 227.091 45.0005C227.379 44.4245 227.523 43.6565 227.523 42.6965V5.11253C227.523 4.15253 227.379 3.38453 227.091 2.80853C226.803 2.23253 226.179 1.77653 225.219 1.44053L223.707 0.864531V0.144531H242.067V0.864531L240.771 1.44053C239.859 1.77653 239.235 2.25653 238.899 2.88053C238.563 3.45653 238.395 4.22453 238.395 5.18453V46.2245H249.483C251.259 46.2245 252.555 45.7925 253.371 44.9285C254.235 44.0645 255.051 42.8165 255.819 41.1845L258.627 35.1365H259.347L258.699 47.6645H223.707Z" fill="black"/>
<path d="M195.223 11.9521C198.343 11.9521 201.007 12.6001 203.215 13.8961C205.423 15.1441 207.103 16.8722 208.255 19.0802C209.455 21.2401 210.055 23.7121 210.055 26.4962C210.055 27.0241 210.031 27.5761 209.983 28.1521C209.935 28.6801 209.839 29.1601 209.695 29.5921H188.239C188.287 34.7761 189.199 38.5201 190.975 40.8241C192.799 43.0801 195.487 44.2081 199.039 44.2081C201.439 44.2081 203.383 43.8241 204.871 43.0561C206.359 42.2881 207.751 41.1601 209.047 39.6721L209.767 40.3201C208.279 42.9601 206.287 45.0241 203.791 46.5121C201.343 48.0001 198.391 48.7442 194.935 48.7442C191.527 48.7442 188.503 48.0241 185.863 46.5841C183.223 45.0961 181.159 42.9841 179.671 40.2481C178.183 37.5121 177.439 34.2481 177.439 30.4562C177.439 26.5201 178.303 23.1841 180.031 20.4481C181.759 17.6641 183.967 15.5521 186.655 14.1121C189.391 12.6721 192.247 11.9521 195.223 11.9521ZM195.007 13.3922C193.615 13.3922 192.415 13.8241 191.407 14.6881C190.447 15.5041 189.679 16.9921 189.103 19.1521C188.575 21.2641 188.287 24.2641 188.239 28.1521H200.551C201.031 22.9201 200.839 19.1521 199.975 16.8481C199.111 14.5441 197.455 13.3922 195.007 13.3922Z" fill="black"/>
<path d="M138.406 47.6642V46.9441L139.414 46.6561C141.094 46.1761 141.934 45.0001 141.934 43.1281V20.5921C141.934 19.5361 141.766 18.7681 141.43 18.2881C141.094 17.7601 140.446 17.4001 139.486 17.2081L138.406 16.9202V16.2001L150.718 12.0241L151.438 12.7441L152.014 17.0641C153.694 15.5761 155.59 14.3521 157.702 13.3922C159.814 12.4322 161.902 11.9521 163.966 11.9521C167.134 11.9521 169.558 12.8162 171.238 14.5442C172.966 16.2722 173.83 18.9121 173.83 22.4641V43.2002C173.83 45.0722 174.742 46.2482 176.566 46.7282L177.214 46.9441V47.6642H160.222V46.9441L161.158 46.6561C162.838 46.1281 163.678 44.9521 163.678 43.1281V20.1601C163.678 17.0881 162.142 15.5522 159.07 15.5522C156.958 15.5522 154.654 16.6082 152.158 18.7201V43.2002C152.158 45.0722 152.998 46.2482 154.678 46.7282L155.326 46.9441V47.6642H138.406Z" fill="black"/>
<path d="M122.866 11.9521C125.986 11.9521 128.65 12.6001 130.858 13.8961C133.066 15.1441 134.746 16.8722 135.898 19.0802C137.098 21.2401 137.698 23.7121 137.698 26.4962C137.698 27.0241 137.674 27.5761 137.626 28.1521C137.578 28.6801 137.482 29.1601 137.338 29.5921H115.882C115.93 34.7761 116.842 38.5201 118.618 40.8241C120.442 43.0801 123.13 44.2081 126.682 44.2081C129.082 44.2081 131.026 43.8241 132.514 43.0561C134.002 42.2881 135.394 41.1601 136.69 39.6721L137.41 40.3201C135.922 42.9601 133.93 45.0241 131.434 46.5121C128.986 48.0001 126.034 48.7442 122.578 48.7442C119.17 48.7442 116.146 48.0241 113.506 46.5841C110.866 45.0961 108.802 42.9841 107.314 40.2481C105.826 37.5121 105.082 34.2481 105.082 30.4562C105.082 26.5201 105.946 23.1841 107.674 20.4481C109.402 17.6641 111.61 15.5521 114.298 14.1121C117.034 12.6721 119.89 11.9521 122.866 11.9521ZM122.65 13.3922C121.258 13.3922 120.058 13.8241 119.05 14.6881C118.09 15.5041 117.322 16.9921 116.746 19.1521C116.218 21.2641 115.93 24.2641 115.882 28.1521H128.194C128.674 22.9201 128.482 19.1521 127.618 16.8481C126.754 14.5441 125.098 13.3922 122.65 13.3922Z" fill="black"/>
<path d="M77.0176 47.6642V46.9441L78.0976 46.6561C79.0576 46.3681 79.7056 45.9361 80.0416 45.3601C80.4256 44.7841 80.6176 44.0401 80.6176 43.1281V20.5921C80.6176 19.5361 80.4256 18.7681 80.0416 18.2881C79.7056 17.7601 79.0576 17.4001 78.0976 17.2081L77.0176 16.9202V16.2001L89.4016 12.0241L90.1216 12.7441L90.7696 18.9361V19.5121C91.4416 18.1681 92.3056 16.9441 93.3616 15.8401C94.4656 14.6881 95.6656 13.7521 96.9616 13.0321C98.3056 12.3121 99.6256 11.9521 100.922 11.9521C102.746 11.9521 104.138 12.4561 105.098 13.4641C106.058 14.4721 106.538 15.7441 106.538 17.2801C106.538 18.9121 106.058 20.1841 105.098 21.0961C104.186 21.9601 103.082 22.3922 101.786 22.3922C99.7696 22.3922 97.9936 21.3841 96.4576 19.3681L96.3136 19.2241C95.8336 18.5521 95.2816 18.1922 94.6576 18.1441C94.0336 18.0481 93.4576 18.3361 92.9296 19.0081C92.4496 19.4401 92.0416 19.9681 91.7056 20.5921C91.4176 21.1681 91.1296 21.8402 90.8416 22.6082V42.6961C90.8416 44.6161 91.6816 45.8161 93.3616 46.2961L95.6656 46.9441V47.6642H77.0176Z" fill="black"/>
<path d="M61.4774 11.9521C64.5974 11.9521 67.2614 12.6001 69.4694 13.8961C71.6774 15.1441 73.3574 16.8722 74.5094 19.0802C75.7094 21.2401 76.3094 23.7121 76.3094 26.4962C76.3094 27.0241 76.2854 27.5761 76.2374 28.1521C76.1894 28.6801 76.0934 29.1601 75.9494 29.5921H54.4934C54.5414 34.7761 55.4534 38.5201 57.2294 40.8241C59.0534 43.0801 61.7414 44.2081 65.2934 44.2081C67.6934 44.2081 69.6374 43.8241 71.1254 43.0561C72.6134 42.2881 74.0054 41.1601 75.3014 39.6721L76.0214 40.3201C74.5334 42.9601 72.5414 45.0241 70.0454 46.5121C67.5974 48.0001 64.6454 48.7442 61.1894 48.7442C57.7814 48.7442 54.7574 48.0241 52.1174 46.5841C49.4774 45.0961 47.4134 42.9841 45.9254 40.2481C44.4374 37.5121 43.6934 34.2481 43.6934 30.4562C43.6934 26.5201 44.5574 23.1841 46.2854 20.4481C48.0134 17.6641 50.2214 15.5521 52.9094 14.1121C55.6454 12.6721 58.5014 11.9521 61.4774 11.9521ZM61.2614 13.3922C59.8694 13.3922 58.6694 13.8241 57.6614 14.6881C56.7014 15.5041 55.9334 16.9921 55.3574 19.1521C54.8294 21.2641 54.5414 24.2641 54.4934 28.1521H66.8054C67.2854 22.9201 67.0934 19.1521 66.2294 16.8481C65.3654 14.5441 63.7094 13.3922 61.2614 13.3922Z" fill="black"/>
<path d="M0 47.664V46.944L1.8 46.296C2.76 45.912 3.504 45.456 4.032 44.928C4.56 44.352 4.992 43.56 5.328 42.552L20.16 0H26.28L40.896 42.84C41.28 43.896 41.712 44.712 42.192 45.288C42.672 45.816 43.416 46.272 44.424 46.656L45.288 46.944V47.664H27V46.944L28.08 46.584C29.088 46.2 29.688 45.672 29.88 45C30.12 44.28 30.096 43.44 29.808 42.48L26.424 32.112H10.44L6.984 42.264C6.648 43.32 6.528 44.16 6.624 44.784C6.768 45.408 7.344 45.912 8.352 46.296L9.936 46.944V47.664H0ZM10.944 30.672H25.992L18.72 8.28L10.944 30.672Z" fill="black"/>
</svg>
